<svg width="30" height="30" viewBox="0 0 30 30" fill="none" xmlns="http://www.w3.org/2000/svg">
<g clip-path="url(#clip0_2643_308)">
<path d="M14.4287 5.66158C12.876 5.64693 11.7041 5.72017 10.7227 6.22555C10.3198 6.43063 10.0342 6.6943 9.81445 7.00191C9.69726 7.15572 9.5874 7.29488 9.53613 7.61715C9.50683 7.77096 9.48486 8.0273 9.64599 8.30562C9.80712 8.59127 10.1514 8.7817 10.3857 8.81832C10.5615 8.84029 10.9351 8.9941 11.001 9.08199C11.1548 9.30172 11.2134 9.46285 11.2353 9.55074C11.2573 9.63863 11.25 9.58004 11.25 9.58004V9.66793C11.25 9.66793 11.3086 10.5908 11.272 11.5429C11.25 12.0117 11.2061 12.5024 11.1328 12.832C11.0596 13.1616 10.8765 13.2421 11.1401 13.0883C10.957 13.1982 11.0229 13.2421 10.7959 13.125C10.5615 13.0151 9.95361 12.5024 9.15527 11.0669C8.35693 9.62398 7.77832 8.87691 7.64648 8.71578C7.59521 8.5693 7.4707 8.269 7.0459 7.93941C6.49658 7.51461 5.93261 7.50728 5.93261 7.50728L5.88134 7.49996H1.7871C1.7871 7.49996 1.55273 7.50728 1.28173 7.56588C1.01074 7.62447 0.622554 7.69039 0.256344 8.14449H0.24902C-0.124516 8.62057 -0.0585982 9.05269 -0.0293013 9.31637C0.00731977 9.58736 0.0878862 9.79977 0.0878862 9.79977L0.102535 9.84371L0.124507 9.88766C0.124507 9.88766 3.25195 16.56 6.9873 20.625C10.4956 24.4482 14.5605 24.375 14.5605 24.375H16.8677L16.9189 24.3676C16.9189 24.3676 17.6587 24.4043 18.2812 23.7085C18.5962 23.3496 18.6694 23.0127 18.7061 22.7636C18.75 22.5073 18.75 22.3022 18.75 22.3022V22.3608C18.75 22.3608 18.7793 21.8774 18.9111 21.372C18.977 21.123 19.0723 20.874 19.1602 20.7348C19.2041 20.6543 19.2041 20.6762 19.2187 20.6543C19.3799 20.7714 19.6436 21.0424 19.9219 21.3867C20.4932 22.0678 21.1377 23.0127 22.0386 23.6645C22.6904 24.1259 23.3057 24.331 23.7744 24.4043C24.0894 24.4555 24.3164 24.4482 24.4702 24.4336L27.6562 24.375H27.6855C27.6855 24.375 28.3447 24.3603 29.0039 23.9428C29.3262 23.7378 29.6997 23.3642 29.8242 22.8295C29.9561 22.2949 29.8096 21.7163 29.5019 21.1816C29.6045 21.3647 29.48 21.123 29.3848 20.9326C29.2895 20.7421 29.1431 20.4858 28.9233 20.1635C28.4985 19.5337 27.7954 18.6474 26.6309 17.5195C26.0815 16.9921 25.73 16.6992 25.5103 16.4941C25.5762 16.3989 25.5835 16.3916 25.8325 16.0986C26.228 15.6372 26.8066 14.956 27.5391 13.9379C28.418 12.7075 29.0552 11.7041 29.4653 10.8691C29.8755 10.0415 30.2051 9.35299 29.8389 8.50338C29.6411 8.04195 29.2895 7.86617 29.0332 7.75631C28.7695 7.64644 28.5352 7.6025 28.3154 7.56588C27.8833 7.49996 27.5024 7.49996 27.5024 7.49996L23.7891 7.52926C23.6792 7.50728 23.2544 7.42672 22.7051 7.77828C22.1631 8.11519 22.0386 8.47408 22.0093 8.58394C21.9214 8.70846 21.3061 9.58004 20.4492 11.1035C19.585 12.6416 18.999 13.059 18.9258 13.0957C18.9038 13.0737 18.9478 13.081 18.8452 13.0224C18.8013 12.9858 18.7573 12.9565 18.7207 12.561C18.6914 12.1655 18.728 11.5429 18.728 10.8105C18.728 9.2358 18.8672 8.41549 18.7866 7.6318C18.75 7.23629 18.5889 6.75289 18.2373 6.43063C17.8857 6.11568 17.5049 5.9985 17.1094 5.89596C16.4868 5.74215 15.6445 5.67623 14.4287 5.66158ZM14.4141 7.53658C15.5493 7.55123 16.3477 7.63912 16.6406 7.71236C16.8896 7.77828 16.9263 7.80758 16.9189 7.79293C16.9189 7.80758 16.9189 7.80025 16.9189 7.82223C16.9482 8.13717 16.853 9.14791 16.853 10.8105C16.853 11.4624 16.8018 12.0922 16.853 12.7221C16.9043 13.352 17.1313 14.1211 17.7978 14.5752H17.8052C17.7246 14.5239 18.6475 15.2124 19.5264 14.8974C20.4053 14.5752 21.1011 13.7695 22.0898 12.019C22.9541 10.4663 23.5913 9.59469 23.5913 9.59469L23.6499 9.5068L23.6938 9.41891C23.6938 9.41891 23.6792 9.41158 23.6938 9.40426L27.5024 9.37496C27.5024 9.37496 27.7661 9.37496 28.0225 9.41891C28.0298 9.41891 28.0371 9.41891 28.0444 9.41891C28.0078 9.43355 28.0371 9.52877 27.7808 10.0488C27.4512 10.7153 26.8579 11.6674 26.0156 12.8466C25.3198 13.8061 24.7998 14.4287 24.4116 14.8828C24.0234 15.3295 23.7305 15.542 23.54 16.1279C23.4448 16.4135 23.4668 16.8383 23.606 17.124C23.7378 17.4023 23.8989 17.5561 24.0601 17.7099C24.3823 18.0175 24.7632 18.3178 25.3198 18.8671C26.4111 19.9218 27.0264 20.6982 27.3706 21.2109C27.5464 21.4746 27.6489 21.6577 27.7148 21.7895C27.7808 21.9213 27.7368 21.8701 27.8833 22.1191C28.0078 22.3462 27.9858 22.3755 27.9858 22.3608C27.8613 22.434 27.5464 22.5 27.5391 22.5L24.353 22.5586L24.2651 22.5805C24.2651 22.5805 24.2725 22.5879 24.0747 22.5586C23.8696 22.5219 23.5474 22.434 23.1372 22.1411C22.6318 21.7822 21.9946 20.9472 21.3647 20.1855C21.0571 19.812 20.7422 19.4458 20.3467 19.1528C19.9512 18.8598 19.3286 18.5888 18.6914 18.8012C18.1421 18.977 17.7832 19.3798 17.5561 19.7534C17.3291 20.1342 17.1973 20.5297 17.0947 20.8886C16.9043 21.6137 16.875 22.2656 16.875 22.2656V22.3242C16.875 22.3242 16.875 22.3681 16.8603 22.434C16.8237 22.4487 16.7725 22.4853 16.7432 22.5H14.5019C14.5019 22.5 11.4038 22.6611 8.36425 19.3652C5.1123 15.8129 2.21923 9.87301 1.97754 9.37496H5.74951C5.78613 9.38961 5.91796 9.44088 5.90332 9.43355C5.81543 9.36031 5.94726 9.52144 5.94726 9.52144L6.00586 9.66061L6.1084 9.77779C6.1084 9.77779 6.68701 10.4809 7.51464 11.9751C8.40087 13.5791 9.14794 14.414 9.98291 14.8169C10.8179 15.2197 11.6968 14.934 12.0703 14.7216C12.7661 14.3188 12.8467 13.7548 12.9639 13.2348C13.0811 12.7148 13.1177 12.1582 13.1396 11.6162C13.1836 10.5761 13.125 9.6899 13.125 9.62398C13.1177 9.60201 13.1177 9.34566 13.0444 9.06734C12.9639 8.7817 12.8174 8.40816 12.5391 8.01266C12.4219 7.85152 12.312 7.93209 12.1875 7.8149C12.7075 7.66842 13.2642 7.52193 14.4141 7.53658Z" fill="#212121"/>
</g>
<defs>
<clipPath id="clip0_2643_308">
<rect width="30" height="30" fill="white"/>
</clipPath>
</defs>
</svg>
